# xmcd CD database file
#
# Track frame offsets:
#	150
#	54468
#	100997
#	160142
#	189550
#	232359
#	280751
#
# Disc length: 4372 seconds
#
# Revision: 0
# Processed by: cddbd v1.5.2PL0 Copyright (c) Steve Scherf et al.
# Submitted via: CDex 1.99.1
#
DISCID=5f111207
DTITLE=Gillespie, Dizzy (1917-1993) - Dizzy Gillespie 1973 - Live at Ronnie Scott's, Vol. 2
DYEAR=1973
DGENRE=Jazz
TTITLE0=A Night In Tunisia
TTITLE1=Matrix
TTITLE2=Beyond A Moonbeam
TTITLE3=Groovin' High
TTITLE4=The Blues
TTITLE5=Brother K
TTITLE6=Manteca
EXTD=YEAR: 1973
EXTT0=
EXTT1=
EXTT2=
EXTT3=
EXTT4=
EXTT5=
EXTT6=
PLAYORDER=
